<svg width="256" height="63" viewBox="0 0 256 63" fill="none" xmlns="http://www.w3.org/2000/svg">
    <path fill-rule="evenodd" clip-rule="evenodd" d="M132.888 14.4035C134.148 13.1909 134.778 11.7257 134.778 10.0079C134.778 8.29008 134.148 6.82489 132.888 5.61232C131.679 4.39975 130.219 3.79346 128.506 3.79346C126.793 3.79346 125.357 4.39975 124.199 5.61232C123.04 6.82489 122.461 8.29008 122.461 10.0079C122.461 11.7257 123.04 13.1909 124.199 14.4035C125.357 15.5655 126.793 16.1465 128.506 16.1465C130.219 16.1465 131.679 15.5655 132.888 14.4035ZM134.097 21.6905C134.097 21.4791 133.919 21.3117 133.708 21.3256L123.332 22.0088C123.139 22.0215 122.99 22.1811 122.99 22.3737V57.6904C122.99 57.8923 123.154 58.056 123.356 58.056H133.732C133.934 58.056 134.097 57.8923 134.097 57.6904V21.6905ZM4.83596 9.47739C1.66236 12.1552 0.0503745 15.5402 0 19.6327C0 24.0282 1.66236 27.5397 4.98708 30.1669C8.3118 32.7436 11.7625 34.9414 15.3391 36.7603C17.6563 37.8718 19.772 39.0591 21.6862 40.3222C23.6005 41.5853 24.5576 42.9494 24.5576 44.4146C24.5576 45.9303 23.8524 47.1682 22.4419 48.1281C21.0314 49.0375 18.9408 49.4923 16.1702 49.4923C14.1049 49.4923 11.8632 49.1133 9.44523 48.3555C7.23464 47.6164 5.42403 46.8774 4.01341 46.1383C3.81104 46.0323 3.56002 46.1301 3.4874 46.3467L0.761881 54.4774C0.712803 54.6238 0.760089 54.7856 0.884601 54.8769C2.31672 55.9274 4.64133 56.8861 7.85843 57.7529C11.2335 58.6118 14.0797 59.0413 16.3969 59.0413C22.6434 59.0413 27.4793 57.6771 30.9048 54.9488C34.3303 52.17 36.043 48.7091 36.043 44.5662C36.043 40.2211 34.3554 36.735 30.9804 34.1078C27.6556 31.43 24.1546 29.1564 20.4773 27.287C17.8074 25.9229 15.6161 24.6851 13.9034 23.5735C12.241 22.462 11.4098 21.1231 11.4098 19.5569C11.4098 18.0412 12.0395 16.8791 13.2989 16.0707C14.6086 15.2624 16.271 14.8582 18.286 14.8582C20.3009 14.8582 22.1396 15.1361 23.802 15.6918C25.4172 16.2159 27.1444 16.8524 28.9837 17.6012C29.1691 17.6767 29.3811 17.5899 29.4596 17.4057L32.7399 9.70555C32.8135 9.53293 32.7447 9.33248 32.5793 9.24389C30.6329 8.20139 28.4123 7.31927 25.9177 6.59753C23.2982 5.78915 20.7039 5.38496 18.1348 5.38496C12.4425 5.38496 8.00955 6.7491 4.83596 9.47739ZM74.932 25.544C71.4057 22.0073 66.6201 20.239 60.5752 20.239C54.7318 20.239 49.9966 21.9568 46.3696 25.3924C42.7426 28.828 40.9291 33.552 40.9291 39.5643C40.9291 45.6777 42.6419 50.4269 46.0673 53.812C49.5432 57.1971 54.2028 58.8897 60.0463 58.8897C65.9905 58.8897 70.8516 57.2224 74.6297 53.8878C78.4078 50.5533 80.2968 45.9051 80.2968 39.9432C80.2968 33.8299 78.5086 29.0301 74.932 25.544ZM105.057 29.5606C102.589 29.5606 100.574 30.5206 99.012 32.4405C97.5007 34.3098 96.7451 36.735 96.7451 39.7159C96.7451 42.6968 97.5007 45.0967 99.012 46.9155C100.574 48.6839 102.589 49.568 105.057 49.568C106.619 49.568 108.029 49.3912 109.288 49.0375C110.46 48.7085 111.828 48.1826 113.392 47.4599C113.584 47.3712 113.812 47.4614 113.89 47.6582L116.745 54.922C116.804 55.0728 116.757 55.2449 116.628 55.3422C114.863 56.6682 112.82 57.5981 110.497 58.1318C108.079 58.6876 106.09 58.9655 104.528 58.9655C98.5838 58.9655 93.8738 57.2477 90.3979 53.812C86.9725 50.3764 85.2597 45.6777 85.2597 39.7159C85.2597 33.7541 86.9725 29.0301 90.3979 25.544C93.8738 22.0073 98.5838 20.239 104.528 20.239C106.09 20.239 108.054 20.5168 110.422 21.0726C112.744 21.6064 114.811 22.5365 116.623 23.8628C116.755 23.9595 116.803 24.1335 116.743 24.2859L113.89 31.5462C113.812 31.7431 113.584 31.8332 113.392 31.7445C111.828 31.0218 110.46 30.4959 109.288 30.1669C108.029 29.7627 106.619 29.5606 105.057 29.5606ZM154.687 50.0228C155.846 50.0228 157.029 49.7701 158.238 49.2649C159.404 48.7291 160.522 47.9821 161.594 47.0238C161.671 46.9552 161.714 46.8569 161.714 46.7541V42.6583C161.714 42.4563 161.55 42.2926 161.348 42.2926H155.367C153.906 42.2926 152.773 42.7221 151.967 43.581C151.161 44.4399 150.758 45.4504 150.758 46.6124C150.758 47.5218 151.135 48.3302 151.891 49.0375C152.647 49.6944 153.579 50.0228 154.687 50.0228ZM157.105 20.239C161.689 20.239 165.442 21.5526 168.364 24.1798C171.336 26.8071 172.822 30.1922 172.822 34.3351V57.6904C172.822 57.8923 172.658 58.056 172.456 58.056H167.557C167.446 58.056 167.341 58.0054 167.271 57.9184L165.203 55.3251C165.073 55.1616 164.832 55.1409 164.671 55.2746C163.465 56.277 162.001 57.1283 160.278 57.8287C158.465 58.5865 156.601 58.9655 154.687 58.9655C150.153 58.9655 146.778 57.854 144.562 55.6309C142.395 53.3573 141.312 50.4017 141.312 46.764C141.312 42.9242 142.597 40.019 145.166 38.0486C147.786 36.0782 151.186 35.093 155.367 35.093H161.249C161.46 35.093 161.628 34.9142 161.603 34.7045C161.441 33.3207 160.899 32.2123 159.976 31.3795C159.019 30.47 157.735 30.0153 156.123 30.0153C154.561 30.0153 152.823 30.2427 150.909 30.6974C149.161 31.1127 147.623 31.6122 146.294 32.196C146.095 32.2838 145.861 32.1835 145.792 31.9766L143.069 23.8559C143.014 23.6915 143.082 23.5106 143.234 23.4273C144.781 22.5799 146.936 21.8455 149.7 21.2242C152.622 20.5674 155.09 20.239 157.105 20.239ZM192.216 4.8858C192.216 4.6742 192.037 4.50677 191.826 4.52094L181.525 5.21233C181.333 5.22522 181.184 5.38474 181.184 5.57719V57.6338C181.184 57.8358 181.348 57.9995 181.55 57.9995H191.851C192.053 57.9995 192.216 57.8358 192.216 57.6338V4.8858ZM62.7841 30.3043C64.5631 30.6552 66.1989 31.5234 67.4864 32.8003C68.7786 34.0816 69.6621 35.7172 70.0254 37.5004C70.3887 39.2836 70.2155 41.1344 69.5276 42.8192C68.8397 44.504 67.6679 45.9472 66.1604 46.9665C64.6528 47.9858 62.877 48.5356 61.0572 48.5463H52.2226C51.9864 48.5463 51.7948 48.3548 51.7948 48.1185V39.2839C51.8055 37.4707 52.3514 35.701 53.3639 34.1967C54.3763 32.6925 55.8104 31.5207 57.4863 30.8282C59.1621 30.1358 61.0051 29.9535 62.7841 30.3043Z" fill="#0070C0"/>
    <path fill-rule="evenodd" clip-rule="evenodd" d="M202.353 15.361C201.981 16.0726 201.641 16.8166 201.334 17.5606C199.57 21.8331 198.875 26.4713 199.31 31.073C199.744 35.6747 201.295 40.101 203.826 43.9681C206.358 47.8351 209.795 51.0262 213.839 53.2646C217.779 55.4452 222.178 56.6576 226.675 56.8042C226.874 56.8107 227.033 56.9729 227.033 57.172V62.3321C227.033 62.5587 227.237 62.7308 227.46 62.6899C235.159 61.2788 242.163 57.316 247.34 51.4341C252.612 45.4437 255.669 37.8256 256 29.8524V29.1408V27.6852C255.838 21.3819 253.583 15.3117 249.592 10.4302C245.601 5.54865 240.1 2.13315 233.955 0.721424C227.81 -0.690304 221.369 -0.0180771 215.648 2.63227C209.927 5.28261 205.25 9.76052 202.353 15.361ZM217.969 22.7013H224.486C224.688 22.7013 224.852 22.865 224.852 23.067V45.014C224.852 45.2159 225.016 45.3796 225.218 45.3796H232.709C232.911 45.3796 233.075 45.2159 233.075 45.014V12.5844C233.075 12.293 232.75 12.1186 232.507 12.2795L217.768 22.0306C217.465 22.2306 217.607 22.7013 217.969 22.7013Z" fill="#ADD139"/>
</svg>
